<svg width="94" height="26" viewBox="0 0 94 26" fill="none" xmlns="http://www.w3.org/2000/svg">
<path d="M15.3816 24.6567C15.3816 24.8359 15.2431 25.0129 15.1025 25.085C14.0926 25.4412 12.9464 25.6925 11.8321 25.6925C8.80467 25.6925 5.9178 24.1213 5.9178 19.9474L5.95189 10.7407H3.93428C3.75958 10.7407 3.62109 10.5987 3.62109 10.4195V7.27919C3.62109 7.09999 3.75958 6.95795 3.93428 6.95795H5.95189L5.9178 2.67475C5.9178 2.49556 6.05629 2.35352 6.23099 2.35352H10.8585C11.0332 2.35352 11.1717 2.49556 11.1717 2.67475L11.1376 6.95795H15.1046C15.2793 6.95795 15.4178 7.09999 15.4178 7.27919V10.4195C15.4178 10.5987 15.2793 10.7407 15.1046 10.7407H11.1035L11.1376 19.8053C11.1376 21.3766 11.9025 21.8748 13.0508 21.8748C13.886 21.8748 14.5464 21.7328 15.0684 21.5536C15.2431 21.5186 15.3816 21.6607 15.3816 21.8027V24.6567Z" fill="black"/>
<path d="M26.515 10.455C24.8446 10.455 23.0358 11.7749 22.4435 14.3798L22.582 25.0134C22.582 25.1926 22.4435 25.3347 22.2688 25.3347H17.7116C17.5369 25.3347 17.3984 25.1926 17.3984 25.0134L17.5369 12.8085L17.3984 0.675732C17.3984 0.496537 17.5369 0.354492 17.7116 0.354492H22.2688C22.4435 0.354492 22.582 0.496537 22.582 0.675732L22.4776 8.99081C23.7304 7.34965 25.5392 6.52797 27.9041 6.52797C31.9393 6.52797 34.4107 8.99081 34.3063 14.3798V18.3046L34.4107 25.0134C34.4107 25.1926 34.2722 25.3347 34.0975 25.3347H29.4018C29.2271 25.3347 29.0886 25.1926 29.0886 25.0134L29.193 18.3767L29.159 13.7373C29.1227 11.5258 27.9403 10.455 26.515 10.455Z" fill="black"/>
<path d="M37.0222 25.3368C36.8475 25.3368 36.709 25.1948 36.709 25.0156L36.8475 16.1302L36.709 7.27969C36.709 7.10049 36.8475 6.95845 37.0222 6.95845H41.6156C41.7903 6.95845 41.9288 7.10049 41.9288 7.27969L41.7903 10.0638C43.1815 7.8872 45.5826 6.81641 48.1925 6.81641C48.4716 6.81641 48.7486 6.85137 48.9936 6.88852C49.1683 6.92349 49.3068 7.10268 49.3068 7.28188V10.6013C49.3068 10.7805 49.1683 10.8876 48.9936 10.8876C48.7848 10.8527 48.5419 10.8527 48.3331 10.8527C44.6452 10.8527 41.8968 12.9571 41.9309 17.1682V25.02C41.9309 25.1992 41.7924 25.3412 41.6177 25.3412H37.0222V25.3368Z" fill="black"/>
<path d="M72.9938 17.2355L73.1685 25.0152C73.1685 25.1943 73.03 25.3364 72.8553 25.3364H68.0531C67.8784 25.3364 67.7399 25.1943 67.7399 25.0152L67.8784 17.2355V10.7408H65.4773C65.3025 10.7408 65.1641 10.5987 65.1641 10.4195V7.27924C65.1641 7.10005 65.3025 6.958 65.4773 6.958H67.8784V5.74516C67.8784 1.56905 70.7311 0 73.7245 0C74.8026 0 76.0894 0.179195 76.9608 0.32124C77.1355 0.32124 77.274 0.500434 77.274 0.677443V3.78276C77.274 3.9248 77.1355 4.06903 76.9608 4.03188C76.4388 3.88984 75.7784 3.81772 74.9432 3.81772C73.7948 3.81772 72.9959 4.38809 72.9959 6.24559V6.96019H76.9629C77.1376 6.96019 77.2761 7.10223 77.2761 7.28143V10.4217C77.2761 10.6009 77.1376 10.7429 76.9629 10.7429H72.9959V17.2355H72.9938Z" fill="black"/>
<path d="M90.4929 24.6567C90.4929 24.8359 90.3545 25.0129 90.2138 25.085C89.204 25.4412 88.0577 25.6925 86.9435 25.6925C83.916 25.6925 81.0291 24.1213 81.0291 19.9474L81.0632 10.7407H79.0456C78.8709 10.7407 78.7324 10.5987 78.7324 10.4195V7.27919C78.7324 7.09999 78.8709 6.95795 79.0456 6.95795H81.0632L81.0291 2.67475C81.0291 2.49556 81.1676 2.35352 81.3423 2.35352H85.9698C86.1445 2.35352 86.283 2.49556 86.283 2.67475L86.2489 6.95795H90.216C90.3907 6.95795 90.5292 7.09999 90.5292 7.27919V10.4195C90.5292 10.5987 90.3907 10.7407 90.216 10.7407H86.2148L86.2489 19.8053C86.2489 21.3766 87.0138 21.8748 88.1621 21.8748C88.9973 21.8748 89.6578 21.7328 90.1798 21.5536C90.3545 21.5186 90.4929 21.6607 90.4929 21.8027V24.6567Z" fill="black"/>
<path d="M60.6438 0.356445H54.7508L51.1822 3.60599L51.1289 8.0356L55.4752 3.8573H60.6438V21.8358H56.5085V11.3857V6.27643L51.1822 11.3857H53.6088V21.8358V25.3388H56.5085H60.6438H63.5456V21.8358V3.8573V0.356445H60.6438Z" fill="black"/>
</svg>
