<svg width="86" height="24" viewBox="0 0 86 24" fill="none" xmlns="http://www.w3.org/2000/svg">
<path d="M14.3868 22.7594C14.3868 22.9249 14.2622 23.0882 14.1358 23.1548C13.2274 23.4836 12.1964 23.7156 11.1942 23.7156C8.47105 23.7156 5.87441 22.2652 5.87441 18.4124L5.90507 9.9139H4.0903C3.93316 9.9139 3.80859 9.78278 3.80859 9.61737V6.71865C3.80859 6.55324 3.93316 6.42212 4.0903 6.42212H5.90507L5.87441 2.4684C5.87441 2.30299 5.99897 2.17188 6.15611 2.17188H10.3184C10.4755 2.17188 10.6001 2.30299 10.6001 2.4684L10.5694 6.42212H14.1377C14.2948 6.42212 14.4194 6.55324 14.4194 6.71865V9.61737C14.4194 9.78278 14.2948 9.9139 14.1377 9.9139H10.5388L10.5694 18.2813C10.5694 19.7316 11.2574 20.1915 12.2903 20.1915C13.0415 20.1915 13.6356 20.0604 14.1051 19.895C14.2622 19.8627 14.3868 19.9939 14.3868 20.125V22.7594Z" fill="white"/>
<path d="M24.4012 9.64968C22.8988 9.64968 21.2718 10.8681 20.7391 13.2726L20.8636 23.0883C20.8636 23.2537 20.7391 23.3848 20.5819 23.3848H16.4829C16.3257 23.3848 16.2012 23.2537 16.2012 23.0883L16.3257 11.8222L16.2012 0.622701C16.2012 0.45729 16.3257 0.326172 16.4829 0.326172H20.5819C20.7391 0.326172 20.8636 0.45729 20.8636 0.622701L20.7697 8.29815C21.8965 6.78324 23.5235 6.02477 25.6507 6.02477C29.2802 6.02477 31.5032 8.29815 31.4093 13.2726V16.8955L31.5032 23.0883C31.5032 23.2537 31.3786 23.3848 31.2215 23.3848H26.9978C26.8407 23.3848 26.7161 23.2537 26.7161 23.0883L26.81 16.962L26.7794 12.6795C26.7468 10.6381 25.6832 9.64968 24.4012 9.64968Z" fill="white"/>
<path d="M33.8501 23.3868C33.6929 23.3868 33.5684 23.2557 33.5684 23.0903L33.6929 14.8883L33.5684 6.71866C33.5684 6.55325 33.6929 6.42213 33.8501 6.42213H37.9817C38.1388 6.42213 38.2634 6.55325 38.2634 6.71866L38.1388 9.28858C39.3902 7.27944 41.5499 6.29102 43.8974 6.29102C44.1485 6.29102 44.3976 6.32329 44.618 6.35758C44.7751 6.38986 44.8997 6.55527 44.8997 6.72068V9.78481C44.8997 9.95022 44.7751 10.0491 44.618 10.0491C44.4302 10.0168 44.2117 10.0168 44.0239 10.0168C40.7067 10.0168 38.2347 11.9594 38.2653 15.8465V23.0943C38.2653 23.2597 38.1408 23.3908 37.9836 23.3908H33.8501V23.3868Z" fill="white"/>
<path d="M66.2066 15.9097L66.3638 23.0909C66.3638 23.2563 66.2392 23.3874 66.0821 23.3874H61.7626C61.6055 23.3874 61.4809 23.2563 61.4809 23.0909L61.6055 15.9097V9.91455H59.4458C59.2886 9.91455 59.1641 9.78343 59.1641 9.61802V6.7193C59.1641 6.55389 59.2886 6.42277 59.4458 6.42277H61.6055V5.30323C61.6055 1.44835 64.1715 0 66.8639 0C67.8336 0 68.9911 0.165411 69.7748 0.296529C69.932 0.296529 70.0565 0.461939 70.0565 0.625332V3.49178C70.0565 3.62289 69.932 3.75603 69.7748 3.72174C69.3053 3.59062 68.7113 3.52405 67.9601 3.52405C66.9272 3.52405 66.2085 4.05054 66.2085 5.76516V6.42479H69.7768C69.9339 6.42479 70.0585 6.55591 70.0585 6.72132V9.62004C70.0585 9.78545 69.9339 9.91657 69.7768 9.91657H66.2085V15.9097H66.2066Z" fill="white"/>
<path d="M81.9474 22.7594C81.9474 22.9249 81.8228 23.0882 81.6963 23.1548C80.788 23.4836 79.757 23.7156 78.7547 23.7156C76.0316 23.7156 73.435 22.2652 73.435 18.4124L73.4656 9.9139H71.6508C71.4937 9.9139 71.3691 9.78278 71.3691 9.61737V6.71865C71.3691 6.55324 71.4937 6.42212 71.6508 6.42212H73.4656L73.435 2.4684C73.435 2.30299 73.5595 2.17188 73.7167 2.17188H77.879C78.0361 2.17188 78.1607 2.30299 78.1607 2.4684L78.13 6.42212H81.6982C81.8554 6.42212 81.9799 6.55324 81.9799 6.71865V9.61737C81.9799 9.78278 81.8554 9.9139 81.6982 9.9139H78.0993L78.13 18.2813C78.13 19.7316 78.818 20.1915 79.8509 20.1915C80.6021 20.1915 81.1961 20.0604 81.6656 19.895C81.8228 19.8627 81.9474 19.9939 81.9474 20.125V22.7594Z" fill="white"/>
<path d="M55.0994 0.328125H49.7988L46.5889 3.32771L46.541 7.41657L50.4504 3.55968H55.0994V20.1552H51.3798V10.5089V5.79273L46.5889 10.5089H48.7716V20.1552V23.3888H51.3798H55.0994H57.7095V20.1552V3.55968V0.328125H55.0994Z" fill="white"/>
</svg>
